<?xml version="1.0" encoding="UTF-8"?>
<svg version="1.1" xmlns="http://www.w3.org/2000/svg" width="156" height="50">
<path d="M0 0 C51.48 0 102.96 0 156 0 C156 16.5 156 33 156 50 C104.52 50 53.04 50 0 50 C0 33.5 0 17 0 0 Z " fill="#FCFEFD" transform="translate(0,0)"/>
<path d="M0 0 C3.22265194 1.47121067 5.73692677 3.2604903 8 6 C8 6.66 8 7.32 8 8 C1.07 8 -5.86 8 -13 8 C-12.34 8.66 -11.68 9.32 -11 10 C-11.375 13.125 -11.375 13.125 -12 16 C-11.01 16 -10.02 16 -9 16 C-8.67 14.68 -8.34 13.36 -8 12 C-6.68 12 -5.36 12 -4 12 C-4 13.32 -4 14.64 -4 16 C-3.01 16 -2.02 16 -1 16 C-0.67 15.01 -0.34 14.02 0 13 C0.33 13.99 0.66 14.98 1 16 C1.78375 15.175 2.5675 14.35 3.375 13.5 C6 11 6 11 8 11 C8.33 10.34 8.66 9.68 9 9 C9.44365036 17.72512369 9.44365036 17.72512369 6 22 C3.04092837 25.22016619 0.84589317 26.29122958 -3.4375 26.5 C-7.94118251 26.27519056 -10.60418487 25.07240416 -14 22 C-16.910372 17.634442 -17.6506249 14.20499921 -17 9 C-12.7861875 1.17434822 -8.70923515 -1.16850203 0 0 Z " fill="#3AC9B1" transform="translate(22,11)"/>
<path d="M0 0 C0 2.31 0 4.62 0 7 C0.969375 6.979375 1.93875 6.95875 2.9375 6.9375 C6 7 6 7 7 8 C7.07258946 10.18639453 7.08373783 12.37500389 7.0625 14.5625 C7.05347656 15.76003906 7.04445313 16.95757813 7.03515625 18.19140625 C7.02355469 19.11824219 7.01195313 20.04507812 7 21 C5.68 21 4.36 21 3 21 C3 17.7 3 14.4 3 11 C2.01 11 1.02 11 0 11 C0 14.63 0 18.26 0 22 C-1.98 22 -3.96 22 -6 22 C-6.33 21.34 -6.66 20.68 -7 20 C-7.33 20.33 -7.66 20.66 -8 21 C-13.8410596 21.37086093 -13.8410596 21.37086093 -16 21 C-18.54393252 17.18410122 -18.57737956 14.4700353 -18 10 C-16.9375 8 -16.9375 8 -15 7 C-8.86153846 6.56923077 -8.86153846 6.56923077 -6 8 C-6 6.02 -6 4.04 -6 2 C-2.25 0 -2.25 0 0 0 Z " fill="#CEF2EC" transform="translate(87,11)"/>
<path d="M0 0 C1.98 0 3.96 0 6 0 C6.99 3.63 7.98 7.26 9 11 C9.33 11 9.66 11 10 11 C10 7.37 10 3.74 10 0 C11.65 0.33 13.3 0.66 15 1 C16.36328125 3.28515625 16.36328125 3.28515625 17.3125 6.0625 C17.80169922 7.44115234 17.80169922 7.44115234 18.30078125 8.84765625 C18.53152344 9.55792969 18.76226562 10.26820312 19 11 C19.33 7.7 19.66 4.4 20 1 C21.65 1 23.3 1 25 1 C25.72790099 8.74810168 24.35178114 13.56558074 20 20 C18.68 20 17.36 20 16 20 C15.34 18.35 14.68 16.7 14 15 C13.13375 16.2375 13.13375 16.2375 12.25 17.5 C11.5075 18.325 10.765 19.15 10 20 C8.68 20 7.36 20 6 20 C4.99513105 17.04329782 3.99693976 14.08438423 3 11.125 C2.71382813 10.28324219 2.42765625 9.44148438 2.1328125 8.57421875 C1.86210938 7.76855469 1.59140625 6.96289062 1.3125 6.1328125 C1.06113281 5.38918457 0.80976562 4.64555664 0.55078125 3.87939453 C0 2 0 2 0 0 Z " fill="#17DEBB" transform="translate(96,12)"/>
<path d="M0 0 C0.33 0 0.66 0 1 0 C1.44365036 8.72512369 1.44365036 8.72512369 -2 13 C-4.95907163 16.22016619 -7.15410683 17.29122958 -11.4375 17.5 C-15.90064204 17.28356 -18.69833618 16.13234773 -22 13 C-22.375 10.25 -22.375 10.25 -22 8 C-20.6078125 8.0309375 -20.6078125 8.0309375 -19.1875 8.0625 C-15.97713989 8.15769604 -15.97713989 8.15769604 -13 7 C-10.29876894 7.16011121 -7.68124769 7.60440608 -5 8 C-4.731875 7.195625 -4.46375 6.39125 -4.1875 5.5625 C-3.795625 4.716875 -3.40375 3.87125 -3 3 C-2.01 2.67 -1.02 2.34 0 2 C0 1.34 0 0.68 0 0 Z " fill="#24C4A9" transform="translate(30,20)"/>
<path d="M0 0 C0 5.28 0 10.56 0 16 C0.99 15.67 1.98 15.34 3 15 C3.16687448 12.58354218 3.16687448 12.58354218 3 10 C2.34 9.34 1.68 8.68 1 8 C1.33 7.34 1.66 6.68 2 6 C4.375 6.3125 4.375 6.3125 7 7 C9 10 9 10 8.8125 13.5 C8 17 8 17 5 20 C2.03 20 -0.94 20 -4 20 C-4.33 13.73 -4.66 7.46 -5 1 C-2 0 -2 0 0 0 Z " fill="#10DDB9" transform="translate(140,12)"/>
<path d="M0 0 C4.95 0 9.9 0 15 0 C15 1.65 15 3.3 15 5 C13.35 5 11.7 5 10 5 C10 9.95 10 14.9 10 20 C8.35 20 6.7 20 5 20 C5 15.05 5 10.1 5 5 C3.35 5 1.7 5 0 5 C0 3.35 0 1.7 0 0 Z " fill="#48E3C8" transform="translate(39,12)"/>
<path d="M0 0 C1 1 1 1 1.1875 3.4375 C1 6 1 6 -1 8 C-3.125 7.625 -3.125 7.625 -5 7 C-4.34 6.01 -3.68 5.02 -3 4 C-3.99 4 -4.98 4 -6 4 C-6 5.98 -6 7.96 -6 10 C-4.02 9.67 -2.04 9.34 0 9 C0.33 10.32 0.66 11.64 1 13 C-2.0832635 14.54163175 -4.60878099 14.29747535 -8 14 C-10.62541413 11.79803976 -10.9445448 10.38026421 -11.4375 7 C-11 4 -11 4 -9.4375 1.625 C-6.15988698 -0.56007535 -3.85797355 -0.36395977 0 0 Z " fill="#1BDEBC" transform="translate(133,18)"/>
<path d="M0 0 C7.26 0 14.52 0 22 0 C20.75794193 3.72617422 18.8889325 5.39291457 16 8 C15.34 8 14.68 8 14 8 C13.67 7.34 13.34 6.68 13 6 C12.67 6.66 12.34 7.32 12 8 C11.01 8 10.02 8 9 8 C9 6.68 9 5.36 9 4 C7.68 4 6.36 4 5 4 C4.67 5.32 4.34 6.64 4 8 C3.01 8 2.02 8 1 8 C1.020625 7.236875 1.04125 6.47375 1.0625 5.6875 C1.12942841 2.89814214 1.12942841 2.89814214 0 0 Z " fill="#A3E6DA" transform="translate(9,19)"/>
<path d="M0 0 C0.66 0.66 1.32 1.32 2 2 C1.625 4.625 1.625 4.625 1 7 C0.01 7 -0.98 7 -2 7 C-2 5.68 -2 4.36 -2 3 C-2.99 3.66 -3.98 4.32 -5 5 C-5 6.32 -5 7.64 -5 9 C-3.02 9 -1.04 9 1 9 C1.33 9.99 1.66 10.98 2 12 C0 14 0 14 -3.4375 14.375 C-7 14 -7 14 -8.9375 12.4375 C-10.39343329 9.09741776 -10.3931463 6.60384106 -10 3 C-7.77611809 -1.05531408 -4.20231132 -0.3820283 0 0 Z " fill="#0CDDB8" transform="translate(65,18)"/>
<path d="M0 0 C0 1.32 0 2.64 0 4 C-1.65 4.33 -3.3 4.66 -5 5 C-5 6.32 -5 7.64 -5 9 C-3.35 9 -1.7 9 0 9 C0.5625 10.9375 0.5625 10.9375 1 13 C-0.89128342 14.89128342 -3.57067726 14.2366852 -6.08984375 14.328125 C-6.72019531 14.21984375 -7.35054688 14.1115625 -8 14 C-10.54393252 10.18410122 -10.57737956 7.4700353 -10 3 C-7.8202924 -1.102979 -4.20798751 -0.23818797 0 0 Z " fill="#18DEBB" transform="translate(79,18)"/>
<path d="M0 0 C4.26467175 1.81475393 4.8578881 2.7157762 7 7 C0.07 7 -6.86 7 -14 7 C-13 3 -13 3 -11.5 1.25 C-7.70389061 -0.6480547 -4.16316961 -0.55013313 0 0 Z " fill="#25C4A9" transform="translate(22,11)"/>
<path d="M0 0 C0 6.6 0 13.2 0 20 C-1.32 20 -2.64 20 -4 20 C-4.33 13.73 -4.66 7.46 -5 1 C-2 0 -2 0 0 0 Z " fill="#0DDDB9" transform="translate(86,12)"/>
<path d="M0 0 C4.29 0 8.58 0 13 0 C13 0.99 13 1.98 13 3 C11.35 3 9.7 3 8 3 C8 7.95 8 12.9 8 18 C7.01 18 6.02 18 5 18 C5 13.05 5 8.1 5 3 C3.35 3.33 1.7 3.66 0 4 C0 2.68 0 1.36 0 0 Z " fill="#04DCB5" transform="translate(40,13)"/>
<path d="M0 0 C1.66611905 -0.042721 3.33382885 -0.04063832 5 0 C6 1 6 1 6.09765625 3.94140625 C6.08605469 5.13636719 6.07445313 6.33132812 6.0625 7.5625 C6.05347656 8.76003906 6.04445313 9.95757812 6.03515625 11.19140625 C6.02355469 12.11824219 6.01195313 13.04507812 6 14 C4.68 14 3.36 14 2 14 C2 10.37 2 6.74 2 3 C1.01 3 0.02 3 -1 3 C-0.67 2.01 -0.34 1.02 0 0 Z " fill="#0EDDB9" transform="translate(88,18)"/>
<path d="M0 0 C0.99 0 1.98 0 3 0 C3 0.66 3 1.32 3 2 C3.66 2 4.32 2 5 2 C5 1.34 5 0.68 5 0 C7.31 0 9.62 0 12 0 C12 2 12 2 9.625 4.625 C7 7 7 7 5 7 C4.67 6.34 4.34 5.68 4 5 C3.67 5.66 3.34 6.32 3 7 C2.01 7 1.02 7 0 7 C0 4.69 0 2.38 0 0 Z " fill="#ECF9F7" transform="translate(18,20)"/>
<path d="M0 0 C0.99 0.33 1.98 0.66 3 1 C2.67 2.98 2.34 4.96 2 7 C2.99 7 3.98 7 5 7 C5.33 5.68 5.66 4.36 6 3 C7.32 3 8.64 3 10 3 C10 4.32 10 5.64 10 7 C10.99 7 11.98 7 13 7 C13.33 6.01 13.66 5.02 14 4 C14.33 4.99 14.66 5.98 15 7 C15.66 7.33 16.32 7.66 17 8 C16.33613281 7.98839844 15.67226563 7.97679687 14.98828125 7.96484375 C8.43693213 7.88106591 8.43693213 7.88106591 2 9 C0.50178941 5.62902617 0 3.79557881 0 0 Z " fill="#5DD3BF" transform="translate(8,20)"/>
<path d="M0 0 C2.13586678 3.20380017 2.23132175 4.01939967 2.125 7.6875 C2.10695312 8.49574219 2.08890625 9.30398437 2.0703125 10.13671875 C2.03550781 11.05904297 2.03550781 11.05904297 2 12 C4.64 12 7.28 12 10 12 C10 12.33 10 12.66 10 13 C7.03 13 4.06 13 1 13 C0.34 11.35 -0.32 9.7 -1 8 C-2.98 8 -4.96 8 -7 8 C-7 6.02 -7 4.04 -7 2 C-6.01 2 -5.02 2 -4 2 C-4.33 2.99 -4.66 3.98 -5 5 C-3.68 4.67 -2.36 4.34 -1 4 C-0.67 2.68 -0.34 1.36 0 0 Z " fill="#E1F4F0" transform="translate(134,20)"/>
<path d="M0 0 C0.33 0 0.66 0 1 0 C1 1.65 1 3.3 1 5 C4.3 5.33 7.6 5.66 11 6 C11.33 6.99 11.66 7.98 12 9 C10 11 10 11 6.5625 11.375 C3 11 3 11 1.0625 9.4375 C-0.34907805 6.19917389 -0.20145347 3.49186021 0 0 Z " fill="#1ADEBC" transform="translate(55,21)"/>
<path d="M0 0 C0 2.64 0 5.28 0 8 C-2.31 7.67 -4.62 7.34 -7 7 C-7.33 5.35 -7.66 3.7 -8 2 C-2.25 0 -2.25 0 0 0 Z " fill="#F6FBFA" transform="translate(81,21)"/>
<path d="M0 0 C0.66 0 1.32 0 2 0 C2 1.32 2 2.64 2 4 C5.27773504 3.24849977 5.27773504 3.24849977 7 0 C8 1 8 1 8.0625 4.0625 C8.041875 5.031875 8.02125 6.00125 8 7 C7.34 6.67 6.68 6.34 6 6 C3.6599583 6.28241883 1.32495277 6.61250787 -1 7 C-1.625 4.625 -1.625 4.625 -2 2 C-1.34 1.34 -0.68 0.68 0 0 Z " fill="#CEF2EC" transform="translate(61,21)"/>
<path d="M0 0 C-0.33 1.32 -0.66 2.64 -1 4 C-1.66 4 -2.32 4 -3 4 C-3 8.95 -3 13.9 -3 19 C-0.36 19 2.28 19 5 19 C5 19.33 5 19.66 5 20 C2.03 20 -0.94 20 -4 20 C-4.33 13.73 -4.66 7.46 -5 1 C-2 0 -2 0 0 0 Z " fill="#29DFBF" transform="translate(140,12)"/>
<path d="M0 0 C1.65 0 3.3 0 5 0 C5 3.3 5 6.6 5 10 C3.68 9.67 2.36 9.34 1 9 C0.67 6.03 0.34 3.06 0 0 Z " fill="#0EDDB8" transform="translate(116,13)"/>
<path d="M0 0 C0.33 0 0.66 0 1 0 C1 2.64 1 5.28 1 8 C-1.99480917 8.8723412 -4.63575911 9.10829766 -7.75 9.0625 C-8.54921875 9.05347656 -9.3484375 9.04445313 -10.171875 9.03515625 C-10.77515625 9.02355469 -11.3784375 9.01195312 -12 9 C-12 8.67 -12 8.34 -12 8 C-9.69 8 -7.38 8 -5 8 C-4.5978125 6.7934375 -4.5978125 6.7934375 -4.1875 5.5625 C-3.795625 4.716875 -3.40375 3.87125 -3 3 C-2.01 2.67 -1.02 2.34 0 2 C0 1.34 0 0.68 0 0 Z " fill="#3FCBB3" transform="translate(30,20)"/>
<path d="M0 0 C0.33 0 0.66 0 1 0 C1.1953125 2.01822917 1.390625 4.03645833 1.5859375 6.0546875 C1.86374749 8.22668245 1.86374749 8.22668245 4 10 C4.125 12.625 4.125 12.625 4 15 C2.68 15.33 1.36 15.66 0 16 C0 10.72 0 5.44 0 0 Z " fill="#9CECDE" transform="translate(140,12)"/>
<path d="M0 0 C0.99 0.33 1.98 0.66 3 1 C3.125 3.375 3.125 3.375 3 6 C2.34 6.66 1.68 7.32 1 8 C-1.125 7.625 -1.125 7.625 -3 7 C-2.34 6.01 -1.68 5.02 -1 4 C-1.66 3.67 -2.32 3.34 -3 3 C-2.34 3 -1.68 3 -1 3 C-0.67 2.01 -0.34 1.02 0 0 Z " fill="#23DFBE" transform="translate(131,18)"/>
<path d="M0 0 C2.64 0 5.28 0 8 0 C8 0.66 8 1.32 8 2 C7.34 2 6.68 2 6 2 C5.34 3.65 4.68 5.3 4 7 C3.01 7 2.02 7 1 7 C1.020625 6.21625 1.04125 5.4325 1.0625 4.625 C1.18684063 2.01885039 1.18684063 2.01885039 0 0 Z " fill="#F4FBFA" transform="translate(9,20)"/>
<path d="M0 0 C0.66 0 1.32 0 2 0 C2 1.32 2 2.64 2 4 C2.66 4.33 3.32 4.66 4 5 C2.02 5.33 0.04 5.66 -2 6 C-1.125 1.125 -1.125 1.125 0 0 Z " fill="#9DEBDE" transform="translate(61,21)"/>
<path d="M0 0 C1.98 0 3.96 0 6 0 C5.34 1.32 4.68 2.64 4 4 C3.01 4 2.02 4 1 4 C0.67 2.68 0.34 1.36 0 0 Z " fill="#2DE1C1" transform="translate(96,12)"/>
<path d="M0 0 C0.33 0 0.66 0 1 0 C1 2.64 1 5.28 1 8 C1.99 8.33 2.98 8.66 4 9 C3.34 10.32 2.68 11.64 2 13 C0.21590198 9.93753253 -0.22880021 7.77920727 -0.125 4.25 C-0.10695313 3.45078125 -0.08890625 2.6515625 -0.0703125 1.828125 C-0.04710938 1.22484375 -0.02390625 0.6215625 0 0 Z " fill="#49E3C8" transform="translate(116,14)"/>
<path d="M0 0 C0.99 0 1.98 0 3 0 C3 1.65 3 3.3 3 5 C2.01 5.33 1.02 5.66 0 6 C0 4.02 0 2.04 0 0 Z " fill="#F6FBFA" transform="translate(141,22)"/>
</svg>
